# xmcd CD database file
#
# Track frame offsets:
#	150
#	19442
#	38582
#	49302
#	68172
#	80737
#	103402
#	128110
#	143730
#	167115
#	188262
#	204817
#	221502
#	240625
#	260432
#	273752
#	301880
#
# Disc length: 4208 seconds
#
# Revision: 8
# Processed by: cddbd v1.5.2PL0 Copyright (c) Steve Scherf et al.
# Submitted via: CDex 1.70beta2
#
DISCID=ec106e11
DTITLE=Ella Fitzgerald and Duke Ellington - Ella Fitzgerald Sings The Duke Ellington Song Book [CD 2)
DYEAR=1957
DGENRE=Jazz
TTITLE0=Just Squeeze Me (But Don't Tease Me)
TTITLE1=It Don't Mean A Thing (If It Ain't Got That Swing)
TTITLE2=Azure
TTITLE3=I Let A Song Go Out Of My Heart
TTITLE4=In A Sentimental Mood
TTITLE5=Don't Get Around Much Anymore
TTITLE6=Prelude To A Kiss
TTITLE7=Mood Indigo
TTITLE8=In A Mellow Tone
TTITLE9=Love You Madly
TTITLE10=Lush Life
TTITLE11=Squatty Roo
TTITLE12=I'm Just A Lucky So-And-So
TTITLE13=All Too Soon
TTITLE14=Everything But You
TTITLE15=I Got It Bad (And That Ain't Good)
TTITLE16=Bli-Blip
EXTD=YEAR: 1957
EXTT0=
EXTT1=
EXTT2=
EXTT3=
EXTT4=
EXTT5=
EXTT6=
EXTT7=
EXTT8=
EXTT9=
EXTT10=
EXTT11=
EXTT12=
EXTT13=
EXTT14=
EXTT15=
EXTT16=
PLAYORDER=
